<svg width="916" height="167" viewBox="0 0 916 167" fill="none" xmlns="http://www.w3.org/2000/svg">
<rect x="78" width="94" height="94" rx="47" fill="#D8DAFD"/>
<path d="M118.867 28.6945C117.381 27.9786 115.751 27.867 114.267 28.1383L110.961 28.7465C109.768 28.9661 108.642 29.4451 107.67 30.1467C106.698 30.8484 105.905 31.7543 105.352 32.7955C101.524 40.0179 98.6301 45.9337 97.5122 50.9776C96.3603 56.1794 97.0623 60.6326 100.528 64.6893C102.828 67.3816 106.781 66.837 108.837 64.5931C110.564 62.702 112.279 60.8013 113.983 58.8909C114.548 58.2563 115.249 57.7467 116.037 57.3969C116.826 57.0472 117.684 56.8656 118.553 56.8645H131.449C133.203 56.8645 134.869 57.6035 136.017 58.889C137.777 60.8577 139.581 62.863 141.163 64.5892C143.219 66.835 147.172 67.3797 149.472 64.6854C152.938 60.6306 153.64 56.1775 152.488 50.9757C151.37 45.9317 148.478 40.0179 144.648 32.7936C144.095 31.7524 143.302 30.8465 142.33 30.1448C141.358 29.4431 140.232 28.9642 139.039 28.7445L135.735 28.1364C134.249 27.8631 132.619 27.9767 131.136 28.6945C130.844 28.8331 130.55 28.9812 130.252 29.1333C129.3 29.6374 128.234 29.9083 127.148 29.9223H122.852C121.766 29.9083 120.7 29.6374 119.748 29.1333C119.45 28.9793 119.156 28.8331 118.867 28.6926V28.6945ZM125.006 43.3934C124.612 43.3934 124.222 43.3187 123.858 43.1737C123.494 43.0286 123.163 42.816 122.885 42.5479C122.606 42.2799 122.385 41.9616 122.235 41.6114C122.084 41.2612 122.006 40.8858 122.006 40.5067C122.006 40.1276 122.084 39.7523 122.235 39.402C122.385 39.0518 122.606 38.7336 122.885 38.4655C123.163 38.1975 123.494 37.9849 123.858 37.8398C124.222 37.6947 124.612 37.6201 125.006 37.6201C125.802 37.6201 126.565 37.9242 127.127 38.4655C127.69 39.0069 128.006 39.7411 128.006 40.5067C128.006 41.2723 127.69 42.0066 127.127 42.5479C126.565 43.0893 125.802 43.3934 125.006 43.3934Z" fill="#3B44F6"/>
<path d="M33.4841 136.14C32.5107 136.14 31.6307 135.933 30.8441 135.52C30.0574 135.093 29.4041 134.48 28.8841 133.68L30.3241 132.12C30.9107 132.773 31.4374 133.227 31.9041 133.48C32.3707 133.72 32.8841 133.84 33.4441 133.84C33.9507 133.84 34.4041 133.733 34.8041 133.52C35.2041 133.293 35.5241 132.993 35.7641 132.62C36.0041 132.233 36.1241 131.813 36.1241 131.36C36.1241 130.867 36.0107 130.433 35.7841 130.06C35.5574 129.673 35.2507 129.367 34.8641 129.14C34.4774 128.913 34.0374 128.8 33.5441 128.8C33.2774 128.8 33.0241 128.82 32.7841 128.86C32.5441 128.9 32.2641 128.98 31.9441 129.1C31.6374 129.22 31.2441 129.407 30.7641 129.66L29.5241 127.98L30.3441 121.96H38.0841V124.26H31.8041L32.3841 123.62L31.7241 128.06L30.9841 127.54C31.1574 127.38 31.4107 127.227 31.7441 127.08C32.0907 126.933 32.4641 126.813 32.8641 126.72C33.2641 126.627 33.6574 126.58 34.0441 126.58C34.9107 126.58 35.6841 126.78 36.3641 127.18C37.0441 127.58 37.5841 128.133 37.9841 128.84C38.3841 129.533 38.5841 130.333 38.5841 131.24C38.5841 132.16 38.3574 132.993 37.9041 133.74C37.4641 134.473 36.8574 135.06 36.0841 135.5C35.3107 135.927 34.4441 136.14 33.4841 136.14ZM46.0266 136.2C44.8932 136.2 43.9199 135.913 43.1066 135.34C42.3066 134.753 41.6866 133.927 41.2466 132.86C40.8199 131.78 40.6066 130.493 40.6066 129C40.6066 127.507 40.8199 126.227 41.2466 125.16C41.6866 124.08 42.3066 123.253 43.1066 122.68C43.9199 122.093 44.8932 121.8 46.0266 121.8C47.1599 121.8 48.1332 122.093 48.9466 122.68C49.7599 123.253 50.3799 124.08 50.8066 125.16C51.2466 126.227 51.4666 127.507 51.4666 129C51.4666 130.493 51.2466 131.78 50.8066 132.86C50.3799 133.927 49.7599 134.753 48.9466 135.34C48.1332 135.913 47.1599 136.2 46.0266 136.2ZM46.0266 133.92C46.9599 133.92 47.6799 133.493 48.1866 132.64C48.7066 131.773 48.9666 130.56 48.9666 129C48.9666 127.427 48.7066 126.207 48.1866 125.34C47.6799 124.473 46.9599 124.04 46.0266 124.04C45.0932 124.04 44.3666 124.473 43.8466 125.34C43.3399 126.207 43.0866 127.427 43.0866 129C43.0866 130.56 43.3399 131.773 43.8466 132.64C44.3666 133.493 45.0932 133.92 46.0266 133.92ZM58.6438 136.2C57.5104 136.2 56.5371 135.913 55.7238 135.34C54.9238 134.753 54.3038 133.927 53.8638 132.86C53.4371 131.78 53.2238 130.493 53.2238 129C53.2238 127.507 53.4371 126.227 53.8638 125.16C54.3038 124.08 54.9238 123.253 55.7238 122.68C56.5371 122.093 57.5104 121.8 58.6438 121.8C59.7771 121.8 60.7504 122.093 61.5638 122.68C62.3771 123.253 62.9971 124.08 63.4238 125.16C63.8638 126.227 64.0838 127.507 64.0838 129C64.0838 130.493 63.8638 131.78 63.4238 132.86C62.9971 133.927 62.3771 134.753 61.5638 135.34C60.7504 135.913 59.7771 136.2 58.6438 136.2ZM58.6438 133.92C59.5771 133.92 60.2971 133.493 60.8038 132.64C61.3238 131.773 61.5838 130.56 61.5838 129C61.5838 127.427 61.3238 126.207 60.8038 125.34C60.2971 124.473 59.5771 124.04 58.6438 124.04C57.7104 124.04 56.9838 124.473 56.4638 125.34C55.9571 126.207 55.7038 127.427 55.7038 129C55.7038 130.56 55.9571 131.773 56.4638 132.64C56.9838 133.493 57.7104 133.92 58.6438 133.92ZM71.2609 136.2C70.1276 136.2 69.1543 135.913 68.3409 135.34C67.5409 134.753 66.9209 133.927 66.4809 132.86C66.0543 131.78 65.8409 130.493 65.8409 129C65.8409 127.507 66.0543 126.227 66.4809 125.16C66.9209 124.08 67.5409 123.253 68.3409 122.68C69.1543 122.093 70.1276 121.8 71.2609 121.8C72.3943 121.8 73.3676 122.093 74.1809 122.68C74.9943 123.253 75.6143 124.08 76.0409 125.16C76.4809 126.227 76.7009 127.507 76.7009 129C76.7009 130.493 76.4809 131.78 76.0409 132.86C75.6143 133.927 74.9943 134.753 74.1809 135.34C73.3676 135.913 72.3943 136.2 71.2609 136.2ZM71.2609 133.92C72.1943 133.92 72.9143 133.493 73.4209 132.64C73.9409 131.773 74.2009 130.56 74.2009 129C74.2009 127.427 73.9409 126.207 73.4209 125.34C72.9143 124.473 72.1943 124.04 71.2609 124.04C70.3276 124.04 69.6009 124.473 69.0809 125.34C68.5743 126.207 68.3209 127.427 68.3209 129C68.3209 130.56 68.5743 131.773 69.0809 132.64C69.6009 133.493 70.3276 133.92 71.2609 133.92ZM78.4981 131.42V129.34H88.5181V131.42H78.4981ZM82.3181 135.18V125.48H84.6781V135.18H82.3181ZM100.133 136L95.6925 125.46H98.3725L101.373 133.34L100.853 133.48L104.013 125.46H106.633L101.973 136H100.133ZM108.712 136V125.46H111.172V136H108.712ZM109.912 123.22C109.419 123.22 109.032 123.1 108.752 122.86C108.486 122.607 108.352 122.253 108.352 121.8C108.352 121.373 108.492 121.027 108.772 120.76C109.052 120.493 109.432 120.36 109.912 120.36C110.419 120.36 110.806 120.487 111.072 120.74C111.352 120.98 111.492 121.333 111.492 121.8C111.492 122.213 111.352 122.553 111.072 122.82C110.792 123.087 110.406 123.22 109.912 123.22ZM118.532 136.2C117.598 136.2 116.758 135.967 116.012 135.5C115.278 135.02 114.692 134.373 114.252 133.56C113.825 132.733 113.612 131.787 113.612 130.72C113.612 129.667 113.825 128.727 114.252 127.9C114.678 127.073 115.258 126.427 115.992 125.96C116.738 125.48 117.578 125.24 118.512 125.24C119.018 125.24 119.505 125.32 119.972 125.48C120.452 125.64 120.878 125.86 121.252 126.14C121.625 126.407 121.918 126.707 122.132 127.04C122.358 127.373 122.485 127.72 122.512 128.08L121.852 128.16V121.2H124.312V136H121.932L121.872 133.52L122.352 133.56C122.338 133.893 122.218 134.213 121.992 134.52C121.778 134.827 121.498 135.107 121.152 135.36C120.805 135.613 120.398 135.82 119.932 135.98C119.478 136.127 119.012 136.2 118.532 136.2ZM119.012 134.12C119.585 134.12 120.092 133.973 120.532 133.68C120.972 133.387 121.312 132.987 121.552 132.48C121.805 131.973 121.932 131.387 121.932 130.72C121.932 130.067 121.805 129.487 121.552 128.98C121.312 128.46 120.972 128.06 120.532 127.78C120.092 127.487 119.585 127.34 119.012 127.34C118.438 127.34 117.932 127.487 117.492 127.78C117.052 128.06 116.705 128.46 116.452 128.98C116.212 129.487 116.092 130.067 116.092 130.72C116.092 131.387 116.212 131.973 116.452 132.48C116.705 132.987 117.052 133.387 117.492 133.68C117.932 133.973 118.438 134.12 119.012 134.12ZM132.044 136.2C130.937 136.2 129.957 135.967 129.104 135.5C128.264 135.033 127.604 134.4 127.124 133.6C126.657 132.787 126.424 131.86 126.424 130.82C126.424 129.993 126.557 129.24 126.824 128.56C127.091 127.88 127.457 127.293 127.924 126.8C128.404 126.293 128.971 125.907 129.624 125.64C130.291 125.36 131.017 125.22 131.804 125.22C132.497 125.22 133.144 125.353 133.744 125.62C134.344 125.887 134.864 126.253 135.304 126.72C135.744 127.173 136.077 127.72 136.304 128.36C136.544 128.987 136.657 129.673 136.644 130.42L136.624 131.28H128.084L127.624 129.6H134.564L134.244 129.94V129.5C134.204 129.087 134.071 128.727 133.844 128.42C133.617 128.1 133.324 127.853 132.964 127.68C132.617 127.493 132.231 127.4 131.804 127.4C131.151 127.4 130.597 127.527 130.144 127.78C129.704 128.033 129.371 128.4 129.144 128.88C128.917 129.347 128.804 129.933 128.804 130.64C128.804 131.32 128.944 131.913 129.224 132.42C129.517 132.927 129.924 133.32 130.444 133.6C130.977 133.867 131.597 134 132.304 134C132.797 134 133.251 133.92 133.664 133.76C134.077 133.6 134.524 133.313 135.004 132.9L136.224 134.6C135.864 134.933 135.451 135.22 134.984 135.46C134.531 135.687 134.051 135.867 133.544 136C133.037 136.133 132.537 136.2 132.044 136.2ZM143.643 136.2C142.589 136.2 141.649 135.967 140.823 135.5C139.996 135.02 139.343 134.367 138.863 133.54C138.383 132.713 138.143 131.773 138.143 130.72C138.143 129.667 138.383 128.727 138.863 127.9C139.343 127.073 139.996 126.427 140.823 125.96C141.649 125.48 142.589 125.24 143.643 125.24C144.683 125.24 145.616 125.48 146.443 125.96C147.269 126.427 147.916 127.073 148.383 127.9C148.863 128.727 149.103 129.667 149.103 130.72C149.103 131.773 148.863 132.713 148.383 133.54C147.916 134.367 147.269 135.02 146.443 135.5C145.616 135.967 144.683 136.2 143.643 136.2ZM143.643 134.02C144.216 134.02 144.723 133.873 145.163 133.58C145.616 133.287 145.969 132.893 146.223 132.4C146.489 131.907 146.616 131.347 146.603 130.72C146.616 130.08 146.489 129.513 146.223 129.02C145.969 128.527 145.616 128.14 145.163 127.86C144.723 127.567 144.216 127.42 143.643 127.42C143.069 127.42 142.549 127.567 142.083 127.86C141.629 128.14 141.276 128.533 141.023 129.04C140.769 129.533 140.643 130.093 140.643 130.72C140.643 131.347 140.769 131.907 141.023 132.4C141.276 132.893 141.629 133.287 142.083 133.58C142.549 133.873 143.069 134.02 143.643 134.02ZM161.922 140.6C161.136 140.6 160.349 140.48 159.562 140.24C158.789 140 158.162 139.687 157.682 139.3L158.562 137.48C158.842 137.68 159.156 137.853 159.502 138C159.849 138.147 160.216 138.26 160.602 138.34C161.002 138.42 161.396 138.46 161.782 138.46C162.489 138.46 163.076 138.347 163.542 138.12C164.022 137.907 164.382 137.573 164.622 137.12C164.862 136.68 164.982 136.127 164.982 135.46V133.52L165.342 133.66C165.262 134.073 165.042 134.467 164.682 134.84C164.322 135.213 163.869 135.52 163.322 135.76C162.776 135.987 162.216 136.1 161.642 136.1C160.642 136.1 159.756 135.867 158.982 135.4C158.222 134.933 157.616 134.3 157.162 133.5C156.722 132.687 156.502 131.753 156.502 130.7C156.502 129.647 156.722 128.713 157.162 127.9C157.602 127.073 158.202 126.427 158.962 125.96C159.736 125.48 160.602 125.24 161.562 125.24C161.962 125.24 162.349 125.287 162.722 125.38C163.096 125.473 163.436 125.607 163.742 125.78C164.062 125.953 164.349 126.147 164.602 126.36C164.856 126.573 165.062 126.8 165.222 127.04C165.382 127.28 165.482 127.513 165.522 127.74L165.002 127.9L165.042 125.46H167.462V135.28C167.462 136.133 167.336 136.887 167.082 137.54C166.829 138.193 166.462 138.747 165.982 139.2C165.502 139.667 164.922 140.013 164.242 140.24C163.562 140.48 162.789 140.6 161.922 140.6ZM162.022 134C162.622 134 163.149 133.86 163.602 133.58C164.069 133.3 164.429 132.913 164.682 132.42C164.936 131.927 165.062 131.36 165.062 130.72C165.062 130.067 164.929 129.493 164.662 129C164.409 128.493 164.056 128.1 163.602 127.82C163.149 127.54 162.622 127.4 162.022 127.4C161.422 127.4 160.896 127.547 160.442 127.84C159.989 128.12 159.629 128.513 159.362 129.02C159.109 129.513 158.982 130.08 158.982 130.72C158.982 131.347 159.109 131.913 159.362 132.42C159.629 132.913 159.989 133.3 160.442 133.58C160.896 133.86 161.422 134 162.022 134ZM174.287 136.2C173.421 136.2 172.634 135.96 171.927 135.48C171.221 135 170.654 134.347 170.227 133.52C169.801 132.693 169.587 131.753 169.587 130.7C169.587 129.647 169.801 128.707 170.227 127.88C170.654 127.053 171.234 126.407 171.967 125.94C172.701 125.473 173.527 125.24 174.447 125.24C174.981 125.24 175.467 125.32 175.907 125.48C176.347 125.627 176.734 125.84 177.067 126.12C177.401 126.4 177.674 126.72 177.887 127.08C178.114 127.44 178.267 127.827 178.347 128.24L177.807 128.1V125.46H180.287V136H177.787V133.48L178.367 133.38C178.274 133.74 178.101 134.093 177.847 134.44C177.607 134.773 177.301 135.073 176.927 135.34C176.567 135.593 176.161 135.8 175.707 135.96C175.267 136.12 174.794 136.2 174.287 136.2ZM174.967 134.02C175.541 134.02 176.047 133.88 176.487 133.6C176.927 133.32 177.267 132.933 177.507 132.44C177.761 131.933 177.887 131.353 177.887 130.7C177.887 130.06 177.761 129.493 177.507 129C177.267 128.507 176.927 128.12 176.487 127.84C176.047 127.56 175.541 127.42 174.967 127.42C174.394 127.42 173.887 127.56 173.447 127.84C173.021 128.12 172.687 128.507 172.447 129C172.207 129.493 172.087 130.06 172.087 130.7C172.087 131.353 172.207 131.933 172.447 132.44C172.687 132.933 173.021 133.32 173.447 133.6C173.887 133.88 174.394 134.02 174.967 134.02ZM183.099 136V125.46H185.519L185.559 127.58L185.159 127.74C185.279 127.393 185.459 127.073 185.699 126.78C185.939 126.473 186.226 126.213 186.559 126C186.893 125.773 187.246 125.6 187.619 125.48C187.993 125.347 188.373 125.28 188.759 125.28C189.333 125.28 189.839 125.373 190.279 125.56C190.733 125.733 191.106 126.013 191.399 126.4C191.706 126.787 191.933 127.28 192.079 127.88L191.699 127.8L191.859 127.48C192.006 127.16 192.213 126.873 192.479 126.62C192.746 126.353 193.046 126.12 193.379 125.92C193.713 125.707 194.059 125.547 194.419 125.44C194.793 125.333 195.159 125.28 195.519 125.28C196.319 125.28 196.986 125.44 197.519 125.76C198.053 126.08 198.453 126.567 198.719 127.22C198.986 127.873 199.119 128.68 199.119 129.64V136H196.639V129.8C196.639 129.267 196.566 128.827 196.419 128.48C196.286 128.133 196.073 127.88 195.779 127.72C195.499 127.547 195.146 127.46 194.719 127.46C194.386 127.46 194.066 127.52 193.759 127.64C193.466 127.747 193.213 127.907 192.999 128.12C192.786 128.32 192.619 128.553 192.499 128.82C192.379 129.087 192.319 129.38 192.319 129.7V136H189.839V129.78C189.839 129.273 189.766 128.853 189.619 128.52C189.473 128.173 189.259 127.913 188.979 127.74C188.699 127.553 188.359 127.46 187.959 127.46C187.626 127.46 187.313 127.52 187.019 127.64C186.726 127.747 186.473 127.9 186.259 128.1C186.046 128.3 185.879 128.533 185.759 128.8C185.639 129.067 185.579 129.36 185.579 129.68V136H183.099ZM206.79 136.2C205.683 136.2 204.703 135.967 203.85 135.5C203.01 135.033 202.35 134.4 201.87 133.6C201.403 132.787 201.17 131.86 201.17 130.82C201.17 129.993 201.303 129.24 201.57 128.56C201.837 127.88 202.203 127.293 202.67 126.8C203.15 126.293 203.717 125.907 204.37 125.64C205.037 125.36 205.763 125.22 206.55 125.22C207.243 125.22 207.89 125.353 208.49 125.62C209.09 125.887 209.61 126.253 210.05 126.72C210.49 127.173 210.823 127.72 211.05 128.36C211.29 128.987 211.403 129.673 211.39 130.42L211.37 131.28H202.83L202.37 129.6H209.31L208.99 129.94V129.5C208.95 129.087 208.817 128.727 208.59 128.42C208.363 128.1 208.07 127.853 207.71 127.68C207.363 127.493 206.977 127.4 206.55 127.4C205.897 127.4 205.343 127.527 204.89 127.78C204.45 128.033 204.117 128.4 203.89 128.88C203.663 129.347 203.55 129.933 203.55 130.64C203.55 131.32 203.69 131.913 203.97 132.42C204.263 132.927 204.67 133.32 205.19 133.6C205.723 133.867 206.343 134 207.05 134C207.543 134 207.997 133.92 208.41 133.76C208.823 133.6 209.27 133.313 209.75 132.9L210.97 134.6C210.61 134.933 210.197 135.22 209.73 135.46C209.277 135.687 208.797 135.867 208.29 136C207.783 136.133 207.283 136.2 206.79 136.2ZM217.089 136.2C216.156 136.2 215.316 136.047 214.569 135.74C213.836 135.42 213.236 134.967 212.769 134.38L214.369 133C214.769 133.453 215.216 133.78 215.709 133.98C216.202 134.18 216.722 134.28 217.269 134.28C217.496 134.28 217.696 134.253 217.869 134.2C218.056 134.147 218.216 134.067 218.349 133.96C218.482 133.853 218.582 133.733 218.649 133.6C218.729 133.453 218.769 133.293 218.769 133.12C218.769 132.8 218.649 132.547 218.409 132.36C218.276 132.267 218.062 132.167 217.769 132.06C217.489 131.953 217.122 131.847 216.669 131.74C215.949 131.553 215.349 131.34 214.869 131.1C214.389 130.847 214.016 130.567 213.749 130.26C213.522 130.007 213.349 129.72 213.229 129.4C213.122 129.08 213.069 128.733 213.069 128.36C213.069 127.893 213.169 127.473 213.369 127.1C213.582 126.713 213.869 126.38 214.229 126.1C214.589 125.82 215.009 125.607 215.489 125.46C215.969 125.313 216.469 125.24 216.989 125.24C217.522 125.24 218.036 125.307 218.529 125.44C219.036 125.573 219.502 125.767 219.929 126.02C220.369 126.26 220.742 126.553 221.049 126.9L219.689 128.4C219.436 128.16 219.156 127.947 218.849 127.76C218.556 127.573 218.256 127.427 217.949 127.32C217.642 127.2 217.356 127.14 217.089 127.14C216.836 127.14 216.609 127.167 216.409 127.22C216.209 127.26 216.042 127.327 215.909 127.42C215.776 127.513 215.669 127.633 215.589 127.78C215.522 127.913 215.489 128.073 215.489 128.26C215.502 128.42 215.542 128.573 215.609 128.72C215.689 128.853 215.796 128.967 215.929 129.06C216.076 129.153 216.296 129.26 216.589 129.38C216.882 129.5 217.262 129.613 217.729 129.72C218.382 129.893 218.929 130.087 219.369 130.3C219.809 130.513 220.156 130.76 220.409 131.04C220.662 131.28 220.842 131.56 220.949 131.88C221.056 132.2 221.109 132.553 221.109 132.94C221.109 133.567 220.929 134.127 220.569 134.62C220.222 135.113 219.742 135.5 219.129 135.78C218.529 136.06 217.849 136.2 217.089 136.2ZM85.2149 162.2C84.3483 162.2 83.5616 161.96 82.8549 161.48C82.1483 161 81.5816 160.347 81.1549 159.52C80.7283 158.693 80.5149 157.753 80.5149 156.7C80.5149 155.647 80.7283 154.707 81.1549 153.88C81.5816 153.053 82.1616 152.407 82.8949 151.94C83.6283 151.473 84.4549 151.24 85.3749 151.24C85.9083 151.24 86.3949 151.32 86.8349 151.48C87.2749 151.627 87.6616 151.84 87.9949 152.12C88.3283 152.4 88.6016 152.72 88.8149 153.08C89.0416 153.44 89.1949 153.827 89.2749 154.24L88.7349 154.1V151.46H91.2149V162H88.7149V159.48L89.2949 159.38C89.2016 159.74 89.0283 160.093 88.7749 160.44C88.5349 160.773 88.2283 161.073 87.8549 161.34C87.4949 161.593 87.0883 161.8 86.6349 161.96C86.1949 162.12 85.7216 162.2 85.2149 162.2ZM85.8949 160.02C86.4683 160.02 86.9749 159.88 87.4149 159.6C87.8549 159.32 88.1949 158.933 88.4349 158.44C88.6883 157.933 88.8149 157.353 88.8149 156.7C88.8149 156.06 88.6883 155.493 88.4349 155C88.1949 154.507 87.8549 154.12 87.4149 153.84C86.9749 153.56 86.4683 153.42 85.8949 153.42C85.3216 153.42 84.8149 153.56 84.3749 153.84C83.9483 154.12 83.6149 154.507 83.3749 155C83.1349 155.493 83.0149 156.06 83.0149 156.7C83.0149 157.353 83.1349 157.933 83.3749 158.44C83.6149 158.933 83.9483 159.32 84.3749 159.6C84.8149 159.88 85.3216 160.02 85.8949 160.02ZM97.2126 162L92.7726 151.46H95.4526L98.4526 159.34L97.9326 159.48L101.093 151.46H103.713L99.0526 162H97.2126ZM109.199 162.2C108.333 162.2 107.546 161.96 106.839 161.48C106.133 161 105.566 160.347 105.139 159.52C104.713 158.693 104.499 157.753 104.499 156.7C104.499 155.647 104.713 154.707 105.139 153.88C105.566 153.053 106.146 152.407 106.879 151.94C107.613 151.473 108.439 151.24 109.359 151.24C109.893 151.24 110.379 151.32 110.819 151.48C111.259 151.627 111.646 151.84 111.979 152.12C112.313 152.4 112.586 152.72 112.799 153.08C113.026 153.44 113.179 153.827 113.259 154.24L112.719 154.1V151.46H115.199V162H112.699V159.48L113.279 159.38C113.186 159.74 113.013 160.093 112.759 160.44C112.519 160.773 112.213 161.073 111.839 161.34C111.479 161.593 111.073 161.8 110.619 161.96C110.179 162.12 109.706 162.2 109.199 162.2ZM109.879 160.02C110.453 160.02 110.959 159.88 111.399 159.6C111.839 159.32 112.179 158.933 112.419 158.44C112.673 157.933 112.799 157.353 112.799 156.7C112.799 156.06 112.673 155.493 112.419 155C112.179 154.507 111.839 154.12 111.399 153.84C110.959 153.56 110.453 153.42 109.879 153.42C109.306 153.42 108.799 153.56 108.359 153.84C107.933 154.12 107.599 154.507 107.359 155C107.119 155.493 106.999 156.06 106.999 156.7C106.999 157.353 107.119 157.933 107.359 158.44C107.599 158.933 107.933 159.32 108.359 159.6C108.799 159.88 109.306 160.02 109.879 160.02ZM118.331 162V151.46H120.791V162H118.331ZM119.531 149.22C119.038 149.22 118.651 149.1 118.371 148.86C118.105 148.607 117.971 148.253 117.971 147.8C117.971 147.373 118.111 147.027 118.391 146.76C118.671 146.493 119.051 146.36 119.531 146.36C120.038 146.36 120.425 146.487 120.691 146.74C120.971 146.98 121.111 147.333 121.111 147.8C121.111 148.213 120.971 148.553 120.691 148.82C120.411 149.087 120.025 149.22 119.531 149.22ZM123.931 162V147.2H126.411V162H123.931ZM133.086 162.2C132.219 162.2 131.433 161.96 130.726 161.48C130.019 161 129.453 160.347 129.026 159.52C128.599 158.693 128.386 157.753 128.386 156.7C128.386 155.647 128.599 154.707 129.026 153.88C129.453 153.053 130.033 152.407 130.766 151.94C131.499 151.473 132.326 151.24 133.246 151.24C133.779 151.24 134.266 151.32 134.706 151.48C135.146 151.627 135.533 151.84 135.866 152.12C136.199 152.4 136.473 152.72 136.686 153.08C136.913 153.44 137.066 153.827 137.146 154.24L136.606 154.1V151.46H139.086V162H136.586V159.48L137.166 159.38C137.073 159.74 136.899 160.093 136.646 160.44C136.406 160.773 136.099 161.073 135.726 161.34C135.366 161.593 134.959 161.8 134.506 161.96C134.066 162.12 133.593 162.2 133.086 162.2ZM133.766 160.02C134.339 160.02 134.846 159.88 135.286 159.6C135.726 159.32 136.066 158.933 136.306 158.44C136.559 157.933 136.686 157.353 136.686 156.7C136.686 156.06 136.559 155.493 136.306 155C136.066 154.507 135.726 154.12 135.286 153.84C134.846 153.56 134.339 153.42 133.766 153.42C133.193 153.42 132.686 153.56 132.246 153.84C131.819 154.12 131.486 154.507 131.246 155C131.006 155.493 130.886 156.06 130.886 156.7C130.886 157.353 131.006 157.933 131.246 158.44C131.486 158.933 131.819 159.32 132.246 159.6C132.686 159.88 133.193 160.02 133.766 160.02ZM147.758 162.2C147.291 162.2 146.831 162.133 146.378 162C145.938 161.853 145.538 161.66 145.178 161.42C144.818 161.18 144.518 160.913 144.278 160.62C144.038 160.313 143.878 160.007 143.798 159.7L144.378 159.44L144.318 161.96H141.938V147.2H144.398V153.9L143.958 153.7C144.025 153.38 144.171 153.08 144.398 152.8C144.638 152.507 144.931 152.247 145.278 152.02C145.625 151.78 146.005 151.593 146.418 151.46C146.831 151.313 147.251 151.24 147.678 151.24C148.625 151.24 149.458 151.473 150.178 151.94C150.911 152.407 151.485 153.053 151.898 153.88C152.325 154.707 152.538 155.647 152.538 156.7C152.538 157.767 152.331 158.713 151.918 159.54C151.505 160.367 150.931 161.02 150.198 161.5C149.478 161.967 148.665 162.2 147.758 162.2ZM147.238 160.04C147.798 160.04 148.298 159.9 148.738 159.62C149.178 159.327 149.525 158.933 149.778 158.44C150.031 157.933 150.158 157.353 150.158 156.7C150.158 156.06 150.031 155.493 149.778 155C149.538 154.507 149.198 154.12 148.758 153.84C148.318 153.56 147.811 153.42 147.238 153.42C146.665 153.42 146.158 153.56 145.718 153.84C145.278 154.12 144.931 154.507 144.678 155C144.425 155.493 144.298 156.06 144.298 156.7C144.298 157.353 144.425 157.933 144.678 158.44C144.931 158.933 145.278 159.327 145.718 159.62C146.158 159.9 146.665 160.04 147.238 160.04ZM154.751 162V147.2H157.231V162H154.751ZM164.866 162.2C163.76 162.2 162.78 161.967 161.926 161.5C161.086 161.033 160.426 160.4 159.946 159.6C159.48 158.787 159.246 157.86 159.246 156.82C159.246 155.993 159.38 155.24 159.646 154.56C159.913 153.88 160.28 153.293 160.746 152.8C161.226 152.293 161.793 151.907 162.446 151.64C163.113 151.36 163.84 151.22 164.626 151.22C165.32 151.22 165.966 151.353 166.566 151.62C167.166 151.887 167.686 152.253 168.126 152.72C168.566 153.173 168.9 153.72 169.126 154.36C169.366 154.987 169.48 155.673 169.466 156.42L169.446 157.28H160.906L160.446 155.6H167.386L167.066 155.94V155.5C167.026 155.087 166.893 154.727 166.666 154.42C166.44 154.1 166.146 153.853 165.786 153.68C165.44 153.493 165.053 153.4 164.626 153.4C163.973 153.4 163.42 153.527 162.966 153.78C162.526 154.033 162.193 154.4 161.966 154.88C161.74 155.347 161.626 155.933 161.626 156.64C161.626 157.32 161.766 157.913 162.046 158.42C162.34 158.927 162.746 159.32 163.266 159.6C163.8 159.867 164.42 160 165.126 160C165.62 160 166.073 159.92 166.486 159.76C166.9 159.6 167.346 159.313 167.826 158.9L169.046 160.6C168.686 160.933 168.273 161.22 167.806 161.46C167.353 161.687 166.873 161.867 166.366 162C165.86 162.133 165.36 162.2 164.866 162.2Z" fill="#181818"/>
<rect x="411" width="94" height="94" rx="47" fill="#D8DAFD"/>
<path d="M480.302 37.2588C480.366 36.7716 480.4 36.2844 480.4 35.8C480.4 29.1388 474.4 23.7936 467.741 24.698C465.801 21.2456 462.105 19 458 19C453.895 19 450.199 21.2456 448.259 24.698C441.586 23.7936 435.6 29.1388 435.6 35.8C435.6 36.2844 435.634 36.7716 435.698 37.2588C432.246 39.202 430 42.898 430 47C430 51.102 432.246 54.798 435.698 56.7412C435.633 57.2248 435.601 57.7121 435.6 58.2C435.6 64.8612 441.586 70.1924 448.259 69.302C450.199 72.7544 453.895 75 458 75C462.105 75 465.801 72.7544 467.741 69.302C474.4 70.1924 480.4 64.8612 480.4 58.2C480.4 57.7156 480.366 57.2284 480.302 56.7412C483.754 54.798 486 51.102 486 47C486 42.898 483.754 39.202 480.302 37.2588ZM455.074 59.3648L444.806 48.9656L448.794 45.0344L455.113 51.4352L467.229 39.412L471.171 43.388L455.074 59.3648Z" fill="#3B44F6"/>
<path d="M362.787 136V124.4H358.787V122H369.507V124.4H365.387V136H362.787ZM370.426 136V125.46H372.846L372.886 128.82L372.546 128.06C372.693 127.527 372.946 127.047 373.306 126.62C373.666 126.193 374.08 125.86 374.546 125.62C375.026 125.367 375.526 125.24 376.046 125.24C376.273 125.24 376.486 125.26 376.686 125.3C376.9 125.34 377.073 125.387 377.206 125.44L376.546 128.14C376.4 128.06 376.22 127.993 376.006 127.94C375.793 127.887 375.58 127.86 375.366 127.86C375.033 127.86 374.713 127.927 374.406 128.06C374.113 128.18 373.853 128.353 373.626 128.58C373.4 128.807 373.22 129.073 373.086 129.38C372.966 129.673 372.906 130.007 372.906 130.38V136H370.426ZM382.504 136.2C381.744 136.2 381.084 136.033 380.524 135.7C379.964 135.353 379.538 134.867 379.244 134.24C378.951 133.6 378.804 132.84 378.804 131.96V125.46H381.264V131.44C381.264 132 381.351 132.48 381.524 132.88C381.698 133.267 381.951 133.567 382.284 133.78C382.618 133.993 383.018 134.1 383.484 134.1C383.831 134.1 384.144 134.047 384.424 133.94C384.718 133.82 384.971 133.66 385.184 133.46C385.398 133.247 385.564 133 385.684 132.72C385.804 132.427 385.864 132.113 385.864 131.78V125.46H388.324V136H385.924L385.884 133.8L386.324 133.56C386.164 134.067 385.891 134.52 385.504 134.92C385.131 135.307 384.684 135.62 384.164 135.86C383.644 136.087 383.091 136.2 382.504 136.2ZM394.728 136.2C393.794 136.2 392.954 136.047 392.208 135.74C391.474 135.42 390.874 134.967 390.408 134.38L392.008 133C392.408 133.453 392.854 133.78 393.348 133.98C393.841 134.18 394.361 134.28 394.908 134.28C395.134 134.28 395.334 134.253 395.508 134.2C395.694 134.147 395.854 134.067 395.988 133.96C396.121 133.853 396.221 133.733 396.288 133.6C396.368 133.453 396.408 133.293 396.408 133.12C396.408 132.8 396.288 132.547 396.048 132.36C395.914 132.267 395.701 132.167 395.408 132.06C395.128 131.953 394.761 131.847 394.308 131.74C393.588 131.553 392.988 131.34 392.508 131.1C392.028 130.847 391.654 130.567 391.388 130.26C391.161 130.007 390.988 129.72 390.868 129.4C390.761 129.08 390.708 128.733 390.708 128.36C390.708 127.893 390.808 127.473 391.008 127.1C391.221 126.713 391.508 126.38 391.868 126.1C392.228 125.82 392.648 125.607 393.128 125.46C393.608 125.313 394.108 125.24 394.628 125.24C395.161 125.24 395.674 125.307 396.168 125.44C396.674 125.573 397.141 125.767 397.568 126.02C398.008 126.26 398.381 126.553 398.688 126.9L397.328 128.4C397.074 128.16 396.794 127.947 396.488 127.76C396.194 127.573 395.894 127.427 395.588 127.32C395.281 127.2 394.994 127.14 394.728 127.14C394.474 127.14 394.248 127.167 394.048 127.22C393.848 127.26 393.681 127.327 393.548 127.42C393.414 127.513 393.308 127.633 393.228 127.78C393.161 127.913 393.128 128.073 393.128 128.26C393.141 128.42 393.181 128.573 393.248 128.72C393.328 128.853 393.434 128.967 393.568 129.06C393.714 129.153 393.934 129.26 394.228 129.38C394.521 129.5 394.901 129.613 395.368 129.72C396.021 129.893 396.568 130.087 397.008 130.3C397.448 130.513 397.794 130.76 398.048 131.04C398.301 131.28 398.481 131.56 398.588 131.88C398.694 132.2 398.748 132.553 398.748 132.94C398.748 133.567 398.568 134.127 398.208 134.62C397.861 135.113 397.381 135.5 396.768 135.78C396.168 136.06 395.488 136.2 394.728 136.2ZM402.055 136V122.78H404.515V136H402.055ZM399.975 127.74V125.46H406.815V127.74H399.975ZM413.53 136.2C412.424 136.2 411.444 135.967 410.59 135.5C409.75 135.033 409.09 134.4 408.61 133.6C408.144 132.787 407.91 131.86 407.91 130.82C407.91 129.993 408.044 129.24 408.31 128.56C408.577 127.88 408.944 127.293 409.41 126.8C409.89 126.293 410.457 125.907 411.11 125.64C411.777 125.36 412.504 125.22 413.29 125.22C413.984 125.22 414.63 125.353 415.23 125.62C415.83 125.887 416.35 126.253 416.79 126.72C417.23 127.173 417.564 127.72 417.79 128.36C418.03 128.987 418.144 129.673 418.13 130.42L418.11 131.28H409.57L409.11 129.6H416.05L415.73 129.94V129.5C415.69 129.087 415.557 128.727 415.33 128.42C415.104 128.1 414.81 127.853 414.45 127.68C414.104 127.493 413.717 127.4 413.29 127.4C412.637 127.4 412.084 127.527 411.63 127.78C411.19 128.033 410.857 128.4 410.63 128.88C410.404 129.347 410.29 129.933 410.29 130.64C410.29 131.32 410.43 131.913 410.71 132.42C411.004 132.927 411.41 133.32 411.93 133.6C412.464 133.867 413.084 134 413.79 134C414.284 134 414.737 133.92 415.15 133.76C415.564 133.6 416.01 133.313 416.49 132.9L417.71 134.6C417.35 134.933 416.937 135.22 416.47 135.46C416.017 135.687 415.537 135.867 415.03 136C414.524 136.133 414.024 136.2 413.53 136.2ZM424.549 136.2C423.616 136.2 422.776 135.967 422.029 135.5C421.296 135.02 420.709 134.373 420.269 133.56C419.842 132.733 419.629 131.787 419.629 130.72C419.629 129.667 419.842 128.727 420.269 127.9C420.696 127.073 421.276 126.427 422.009 125.96C422.756 125.48 423.596 125.24 424.529 125.24C425.036 125.24 425.522 125.32 425.989 125.48C426.469 125.64 426.896 125.86 427.269 126.14C427.642 126.407 427.936 126.707 428.149 127.04C428.376 127.373 428.502 127.72 428.529 128.08L427.869 128.16V121.2H430.329V136H427.949L427.889 133.52L428.369 133.56C428.356 133.893 428.236 134.213 428.009 134.52C427.796 134.827 427.516 135.107 427.169 135.36C426.822 135.613 426.416 135.82 425.949 135.98C425.496 136.127 425.029 136.2 424.549 136.2ZM425.029 134.12C425.602 134.12 426.109 133.973 426.549 133.68C426.989 133.387 427.329 132.987 427.569 132.48C427.822 131.973 427.949 131.387 427.949 130.72C427.949 130.067 427.822 129.487 427.569 128.98C427.329 128.46 426.989 128.06 426.549 127.78C426.109 127.487 425.602 127.34 425.029 127.34C424.456 127.34 423.949 127.487 423.509 127.78C423.069 128.06 422.722 128.46 422.469 128.98C422.229 129.487 422.109 130.067 422.109 130.72C422.109 131.387 422.229 131.973 422.469 132.48C422.722 132.987 423.069 133.387 423.509 133.68C423.949 133.973 424.456 134.12 425.029 134.12ZM444.821 136.2C444.354 136.2 443.894 136.133 443.441 136C443.001 135.853 442.601 135.66 442.241 135.42C441.881 135.18 441.581 134.913 441.341 134.62C441.101 134.313 440.941 134.007 440.861 133.7L441.441 133.44L441.381 135.96H439.001V121.2H441.461V127.9L441.021 127.7C441.087 127.38 441.234 127.08 441.461 126.8C441.701 126.507 441.994 126.247 442.341 126.02C442.687 125.78 443.067 125.593 443.481 125.46C443.894 125.313 444.314 125.24 444.741 125.24C445.687 125.24 446.521 125.473 447.241 125.94C447.974 126.407 448.547 127.053 448.961 127.88C449.387 128.707 449.601 129.647 449.601 130.7C449.601 131.767 449.394 132.713 448.981 133.54C448.567 134.367 447.994 135.02 447.261 135.5C446.541 135.967 445.727 136.2 444.821 136.2ZM444.301 134.04C444.861 134.04 445.361 133.9 445.801 133.62C446.241 133.327 446.587 132.933 446.841 132.44C447.094 131.933 447.221 131.353 447.221 130.7C447.221 130.06 447.094 129.493 446.841 129C446.601 128.507 446.261 128.12 445.821 127.84C445.381 127.56 444.874 127.42 444.301 127.42C443.727 127.42 443.221 127.56 442.781 127.84C442.341 128.12 441.994 128.507 441.741 129C441.487 129.493 441.361 130.06 441.361 130.7C441.361 131.353 441.487 131.933 441.741 132.44C441.994 132.933 442.341 133.327 442.781 133.62C443.221 133.9 443.727 134.04 444.301 134.04ZM453.003 140.6L455.243 135.42L455.263 137.06L450.063 125.46H452.903L455.803 132.34C455.896 132.513 455.99 132.747 456.083 133.04C456.176 133.32 456.256 133.6 456.323 133.88L455.823 134.04C455.916 133.787 456.016 133.52 456.123 133.24C456.23 132.947 456.33 132.647 456.423 132.34L458.903 125.46H461.763L457.363 136L455.563 140.6H453.003ZM472.036 135.02V123.66L472.776 124.62L469.936 126.06L469.356 123.78L473.176 121.8H474.616V135.02H472.036ZM469.696 136V133.6H477.016V136H469.696ZM484.486 136.2C483.352 136.2 482.379 135.913 481.566 135.34C480.766 134.753 480.146 133.927 479.706 132.86C479.279 131.78 479.066 130.493 479.066 129C479.066 127.507 479.279 126.227 479.706 125.16C480.146 124.08 480.766 123.253 481.566 122.68C482.379 122.093 483.352 121.8 484.486 121.8C485.619 121.8 486.592 122.093 487.406 122.68C488.219 123.253 488.839 124.08 489.266 125.16C489.706 126.227 489.926 127.507 489.926 129C489.926 130.493 489.706 131.78 489.266 132.86C488.839 133.927 488.219 134.753 487.406 135.34C486.592 135.913 485.619 136.2 484.486 136.2ZM484.486 133.92C485.419 133.92 486.139 133.493 486.646 132.64C487.166 131.773 487.426 130.56 487.426 129C487.426 127.427 487.166 126.207 486.646 125.34C486.139 124.473 485.419 124.04 484.486 124.04C483.552 124.04 482.826 124.473 482.306 125.34C481.799 126.207 481.546 127.427 481.546 129C481.546 130.56 481.799 131.773 482.306 132.64C482.826 133.493 483.552 133.92 484.486 133.92ZM497.103 136.2C495.969 136.2 494.996 135.913 494.183 135.34C493.383 134.753 492.763 133.927 492.323 132.86C491.896 131.78 491.683 130.493 491.683 129C491.683 127.507 491.896 126.227 492.323 125.16C492.763 124.08 493.383 123.253 494.183 122.68C494.996 122.093 495.969 121.8 497.103 121.8C498.236 121.8 499.209 122.093 500.023 122.68C500.836 123.253 501.456 124.08 501.883 125.16C502.323 126.227 502.543 127.507 502.543 129C502.543 130.493 502.323 131.78 501.883 132.86C501.456 133.927 500.836 134.753 500.023 135.34C499.209 135.913 498.236 136.2 497.103 136.2ZM497.103 133.92C498.036 133.92 498.756 133.493 499.263 132.64C499.783 131.773 500.043 130.56 500.043 129C500.043 127.427 499.783 126.207 499.263 125.34C498.756 124.473 498.036 124.04 497.103 124.04C496.169 124.04 495.443 124.473 494.923 125.34C494.416 126.207 494.163 127.427 494.163 129C494.163 130.56 494.416 131.773 494.923 132.64C495.443 133.493 496.169 133.92 497.103 133.92ZM505.8 136.22C505.32 136.22 504.947 136.08 504.68 135.8C504.427 135.52 504.3 135.127 504.3 134.62C504.3 134.153 504.433 133.773 504.7 133.48C504.98 133.173 505.347 133.02 505.8 133.02C506.28 133.02 506.647 133.16 506.9 133.44C507.167 133.707 507.3 134.1 507.3 134.62C507.3 135.087 507.16 135.473 506.88 135.78C506.613 136.073 506.253 136.22 505.8 136.22ZM514.486 136.2C513.352 136.2 512.379 135.913 511.566 135.34C510.766 134.753 510.146 133.927 509.706 132.86C509.279 131.78 509.066 130.493 509.066 129C509.066 127.507 509.279 126.227 509.706 125.16C510.146 124.08 510.766 123.253 511.566 122.68C512.379 122.093 513.352 121.8 514.486 121.8C515.619 121.8 516.592 122.093 517.406 122.68C518.219 123.253 518.839 124.08 519.266 125.16C519.706 126.227 519.926 127.507 519.926 129C519.926 130.493 519.706 131.78 519.266 132.86C518.839 133.927 518.219 134.753 517.406 135.34C516.592 135.913 515.619 136.2 514.486 136.2ZM514.486 133.92C515.419 133.92 516.139 133.493 516.646 132.64C517.166 131.773 517.426 130.56 517.426 129C517.426 127.427 517.166 126.207 516.646 125.34C516.139 124.473 515.419 124.04 514.486 124.04C513.552 124.04 512.826 124.473 512.306 125.34C511.799 126.207 511.546 127.427 511.546 129C511.546 130.56 511.799 131.773 512.306 132.64C512.826 133.493 513.552 133.92 514.486 133.92ZM527.103 136.2C525.969 136.2 524.996 135.913 524.183 135.34C523.383 134.753 522.763 133.927 522.323 132.86C521.896 131.78 521.683 130.493 521.683 129C521.683 127.507 521.896 126.227 522.323 125.16C522.763 124.08 523.383 123.253 524.183 122.68C524.996 122.093 525.969 121.8 527.103 121.8C528.236 121.8 529.209 122.093 530.023 122.68C530.836 123.253 531.456 124.08 531.883 125.16C532.323 126.227 532.543 127.507 532.543 129C532.543 130.493 532.323 131.78 531.883 132.86C531.456 133.927 530.836 134.753 530.023 135.34C529.209 135.913 528.236 136.2 527.103 136.2ZM527.103 133.92C528.036 133.92 528.756 133.493 529.263 132.64C529.783 131.773 530.043 130.56 530.043 129C530.043 127.427 529.783 126.207 529.263 125.34C528.756 124.473 528.036 124.04 527.103 124.04C526.169 124.04 525.443 124.473 524.923 125.34C524.416 126.207 524.163 127.427 524.163 129C524.163 130.56 524.416 131.773 524.923 132.64C525.443 133.493 526.169 133.92 527.103 133.92ZM539.72 136.2C538.587 136.2 537.613 135.913 536.8 135.34C536 134.753 535.38 133.927 534.94 132.86C534.513 131.78 534.3 130.493 534.3 129C534.3 127.507 534.513 126.227 534.94 125.16C535.38 124.08 536 123.253 536.8 122.68C537.613 122.093 538.587 121.8 539.72 121.8C540.853 121.8 541.827 122.093 542.64 122.68C543.453 123.253 544.073 124.08 544.5 125.16C544.94 126.227 545.16 127.507 545.16 129C545.16 130.493 544.94 131.78 544.5 132.86C544.073 133.927 543.453 134.753 542.64 135.34C541.827 135.913 540.853 136.2 539.72 136.2ZM539.72 133.92C540.653 133.92 541.373 133.493 541.88 132.64C542.4 131.773 542.66 130.56 542.66 129C542.66 127.427 542.4 126.207 541.88 125.34C541.373 124.473 540.653 124.04 539.72 124.04C538.787 124.04 538.06 124.473 537.54 125.34C537.033 126.207 536.78 127.427 536.78 129C536.78 130.56 537.033 131.773 537.54 132.64C538.06 133.493 538.787 133.92 539.72 133.92ZM546.957 131.42V129.34H556.977V131.42H546.957ZM550.777 135.18V125.48H553.137V135.18H550.777ZM413.179 162.2C412.192 162.2 411.305 161.96 410.519 161.48C409.732 161 409.112 160.347 408.659 159.52C408.205 158.693 407.979 157.76 407.979 156.72C407.979 155.68 408.205 154.747 408.659 153.92C409.112 153.093 409.732 152.44 410.519 151.96C411.305 151.48 412.192 151.24 413.179 151.24C414.125 151.24 414.985 151.42 415.759 151.78C416.532 152.14 417.132 152.64 417.559 153.28L416.199 154.92C415.999 154.64 415.745 154.387 415.439 154.16C415.132 153.933 414.805 153.753 414.459 153.62C414.112 153.487 413.765 153.42 413.419 153.42C412.832 153.42 412.305 153.567 411.839 153.86C411.385 154.14 411.025 154.533 410.759 155.04C410.492 155.533 410.359 156.093 410.359 156.72C410.359 157.347 410.492 157.907 410.759 158.4C411.039 158.893 411.412 159.287 411.879 159.58C412.345 159.873 412.865 160.02 413.439 160.02C413.785 160.02 414.119 159.967 414.439 159.86C414.772 159.74 415.085 159.573 415.379 159.36C415.672 159.147 415.945 158.88 416.199 158.56L417.559 160.22C417.105 160.807 416.479 161.287 415.679 161.66C414.892 162.02 414.059 162.2 413.179 162.2ZM423.1 162.2C422.34 162.2 421.68 162.033 421.12 161.7C420.56 161.353 420.133 160.867 419.84 160.24C419.547 159.6 419.4 158.84 419.4 157.96V151.46H421.86V157.44C421.86 158 421.947 158.48 422.12 158.88C422.293 159.267 422.547 159.567 422.88 159.78C423.213 159.993 423.613 160.1 424.08 160.1C424.427 160.1 424.74 160.047 425.02 159.94C425.313 159.82 425.567 159.66 425.78 159.46C425.993 159.247 426.16 159 426.28 158.72C426.4 158.427 426.46 158.113 426.46 157.78V151.46H428.92V162H426.52L426.48 159.8L426.92 159.56C426.76 160.067 426.487 160.52 426.1 160.92C425.727 161.307 425.28 161.62 424.76 161.86C424.24 162.087 423.687 162.2 423.1 162.2ZM435.323 162.2C434.39 162.2 433.55 162.047 432.803 161.74C432.07 161.42 431.47 160.967 431.003 160.38L432.603 159C433.003 159.453 433.45 159.78 433.943 159.98C434.437 160.18 434.957 160.28 435.503 160.28C435.73 160.28 435.93 160.253 436.103 160.2C436.29 160.147 436.45 160.067 436.583 159.96C436.717 159.853 436.817 159.733 436.883 159.6C436.963 159.453 437.003 159.293 437.003 159.12C437.003 158.8 436.883 158.547 436.643 158.36C436.51 158.267 436.297 158.167 436.003 158.06C435.723 157.953 435.357 157.847 434.903 157.74C434.183 157.553 433.583 157.34 433.103 157.1C432.623 156.847 432.25 156.567 431.983 156.26C431.757 156.007 431.583 155.72 431.463 155.4C431.357 155.08 431.303 154.733 431.303 154.36C431.303 153.893 431.403 153.473 431.603 153.1C431.817 152.713 432.103 152.38 432.463 152.1C432.823 151.82 433.243 151.607 433.723 151.46C434.203 151.313 434.703 151.24 435.223 151.24C435.757 151.24 436.27 151.307 436.763 151.44C437.27 151.573 437.737 151.767 438.163 152.02C438.603 152.26 438.977 152.553 439.283 152.9L437.923 154.4C437.67 154.16 437.39 153.947 437.083 153.76C436.79 153.573 436.49 153.427 436.183 153.32C435.877 153.2 435.59 153.14 435.323 153.14C435.07 153.14 434.843 153.167 434.643 153.22C434.443 153.26 434.277 153.327 434.143 153.42C434.01 153.513 433.903 153.633 433.823 153.78C433.757 153.913 433.723 154.073 433.723 154.26C433.737 154.42 433.777 154.573 433.843 154.72C433.923 154.853 434.03 154.967 434.163 155.06C434.31 155.153 434.53 155.26 434.823 155.38C435.117 155.5 435.497 155.613 435.963 155.72C436.617 155.893 437.163 156.087 437.603 156.3C438.043 156.513 438.39 156.76 438.643 157.04C438.897 157.28 439.077 157.56 439.183 157.88C439.29 158.2 439.343 158.553 439.343 158.94C439.343 159.567 439.163 160.127 438.803 160.62C438.457 161.113 437.977 161.5 437.363 161.78C436.763 162.06 436.083 162.2 435.323 162.2ZM442.65 162V148.78H445.11V162H442.65ZM440.57 153.74V151.46H447.41V153.74H440.57ZM454.006 162.2C452.953 162.2 452.013 161.967 451.186 161.5C450.359 161.02 449.706 160.367 449.226 159.54C448.746 158.713 448.506 157.773 448.506 156.72C448.506 155.667 448.746 154.727 449.226 153.9C449.706 153.073 450.359 152.427 451.186 151.96C452.013 151.48 452.953 151.24 454.006 151.24C455.046 151.24 455.979 151.48 456.806 151.96C457.633 152.427 458.279 153.073 458.746 153.9C459.226 154.727 459.466 155.667 459.466 156.72C459.466 157.773 459.226 158.713 458.746 159.54C458.279 160.367 457.633 161.02 456.806 161.5C455.979 161.967 455.046 162.2 454.006 162.2ZM454.006 160.02C454.579 160.02 455.086 159.873 455.526 159.58C455.979 159.287 456.333 158.893 456.586 158.4C456.853 157.907 456.979 157.347 456.966 156.72C456.979 156.08 456.853 155.513 456.586 155.02C456.333 154.527 455.979 154.14 455.526 153.86C455.086 153.567 454.579 153.42 454.006 153.42C453.433 153.42 452.913 153.567 452.446 153.86C451.993 154.14 451.639 154.533 451.386 155.04C451.133 155.533 451.006 156.093 451.006 156.72C451.006 157.347 451.133 157.907 451.386 158.4C451.639 158.893 451.993 159.287 452.446 159.58C452.913 159.873 453.433 160.02 454.006 160.02ZM461.627 162V151.46H464.047L464.087 153.58L463.687 153.74C463.807 153.393 463.987 153.073 464.227 152.78C464.467 152.473 464.753 152.213 465.087 152C465.42 151.773 465.773 151.6 466.147 151.48C466.52 151.347 466.9 151.28 467.287 151.28C467.86 151.28 468.367 151.373 468.807 151.56C469.26 151.733 469.633 152.013 469.927 152.4C470.233 152.787 470.46 153.28 470.607 153.88L470.227 153.8L470.387 153.48C470.533 153.16 470.74 152.873 471.007 152.62C471.273 152.353 471.573 152.12 471.907 151.92C472.24 151.707 472.587 151.547 472.947 151.44C473.32 151.333 473.687 151.28 474.047 151.28C474.847 151.28 475.513 151.44 476.047 151.76C476.58 152.08 476.98 152.567 477.247 153.22C477.513 153.873 477.647 154.68 477.647 155.64V162H475.167V155.8C475.167 155.267 475.093 154.827 474.947 154.48C474.813 154.133 474.6 153.88 474.307 153.72C474.027 153.547 473.673 153.46 473.247 153.46C472.913 153.46 472.593 153.52 472.287 153.64C471.993 153.747 471.74 153.907 471.527 154.12C471.313 154.32 471.147 154.553 471.027 154.82C470.907 155.087 470.847 155.38 470.847 155.7V162H468.367V155.78C468.367 155.273 468.293 154.853 468.147 154.52C468 154.173 467.787 153.913 467.507 153.74C467.227 153.553 466.887 153.46 466.487 153.46C466.153 153.46 465.84 153.52 465.547 153.64C465.253 153.747 465 153.9 464.787 154.1C464.573 154.3 464.407 154.533 464.287 154.8C464.167 155.067 464.107 155.36 464.107 155.68V162H461.627ZM485.318 162.2C484.211 162.2 483.231 161.967 482.378 161.5C481.538 161.033 480.878 160.4 480.398 159.6C479.931 158.787 479.698 157.86 479.698 156.82C479.698 155.993 479.831 155.24 480.098 154.56C480.364 153.88 480.731 153.293 481.198 152.8C481.678 152.293 482.244 151.907 482.898 151.64C483.564 151.36 484.291 151.22 485.078 151.22C485.771 151.22 486.418 151.353 487.018 151.62C487.618 151.887 488.138 152.253 488.578 152.72C489.018 153.173 489.351 153.72 489.578 154.36C489.818 154.987 489.931 155.673 489.918 156.42L489.898 157.28H481.358L480.898 155.6H487.838L487.518 155.94V155.5C487.478 155.087 487.344 154.727 487.118 154.42C486.891 154.1 486.598 153.853 486.238 153.68C485.891 153.493 485.504 153.4 485.078 153.4C484.424 153.4 483.871 153.527 483.418 153.78C482.978 154.033 482.644 154.4 482.418 154.88C482.191 155.347 482.078 155.933 482.078 156.64C482.078 157.32 482.218 157.913 482.498 158.42C482.791 158.927 483.198 159.32 483.718 159.6C484.251 159.867 484.871 160 485.578 160C486.071 160 486.524 159.92 486.938 159.76C487.351 159.6 487.798 159.313 488.278 158.9L489.497 160.6C489.138 160.933 488.724 161.22 488.258 161.46C487.804 161.687 487.324 161.867 486.818 162C486.311 162.133 485.811 162.2 485.318 162.2ZM492.096 162V151.46H494.516L494.556 154.82L494.216 154.06C494.363 153.527 494.616 153.047 494.976 152.62C495.336 152.193 495.75 151.86 496.216 151.62C496.696 151.367 497.196 151.24 497.716 151.24C497.943 151.24 498.156 151.26 498.356 151.3C498.57 151.34 498.743 151.387 498.876 151.44L498.216 154.14C498.07 154.06 497.89 153.993 497.676 153.94C497.463 153.887 497.25 153.86 497.036 153.86C496.703 153.86 496.383 153.927 496.076 154.06C495.783 154.18 495.523 154.353 495.296 154.58C495.07 154.807 494.89 155.073 494.756 155.38C494.636 155.673 494.576 156.007 494.576 156.38V162H492.096ZM504.034 162.2C503.101 162.2 502.261 162.047 501.514 161.74C500.781 161.42 500.181 160.967 499.714 160.38L501.314 159C501.714 159.453 502.161 159.78 502.654 159.98C503.148 160.18 503.668 160.28 504.214 160.28C504.441 160.28 504.641 160.253 504.814 160.2C505.001 160.147 505.161 160.067 505.294 159.96C505.428 159.853 505.528 159.733 505.594 159.6C505.674 159.453 505.714 159.293 505.714 159.12C505.714 158.8 505.594 158.547 505.354 158.36C505.221 158.267 505.008 158.167 504.714 158.06C504.434 157.953 504.068 157.847 503.614 157.74C502.894 157.553 502.294 157.34 501.814 157.1C501.334 156.847 500.961 156.567 500.694 156.26C500.468 156.007 500.294 155.72 500.174 155.4C500.068 155.08 500.014 154.733 500.014 154.36C500.014 153.893 500.114 153.473 500.314 153.1C500.528 152.713 500.814 152.38 501.174 152.1C501.534 151.82 501.954 151.607 502.434 151.46C502.914 151.313 503.414 151.24 503.934 151.24C504.468 151.24 504.981 151.307 505.474 151.44C505.981 151.573 506.448 151.767 506.874 152.02C507.314 152.26 507.688 152.553 507.994 152.9L506.634 154.4C506.381 154.16 506.101 153.947 505.794 153.76C505.501 153.573 505.201 153.427 504.894 153.32C504.588 153.2 504.301 153.14 504.034 153.14C503.781 153.14 503.554 153.167 503.354 153.22C503.154 153.26 502.988 153.327 502.854 153.42C502.721 153.513 502.614 153.633 502.534 153.78C502.468 153.913 502.434 154.073 502.434 154.26C502.448 154.42 502.488 154.573 502.554 154.72C502.634 154.853 502.741 154.967 502.874 155.06C503.021 155.153 503.241 155.26 503.534 155.38C503.828 155.5 504.208 155.613 504.674 155.72C505.328 155.893 505.874 156.087 506.314 156.3C506.754 156.513 507.101 156.76 507.354 157.04C507.608 157.28 507.788 157.56 507.894 157.88C508.001 158.2 508.054 158.553 508.054 158.94C508.054 159.567 507.874 160.127 507.514 160.62C507.168 161.113 506.688 161.5 506.074 161.78C505.474 162.06 504.794 162.2 504.034 162.2Z" fill="#181818"/>
<rect x="744" width="94" height="94" rx="47" fill="#D8DAFD"/>
<path d="M803.859 54.0222C808.861 60.1518 811.165 65.1752 810.002 67.4216C809.11 69.1261 803.6 72.4562 799.546 73.7318C796.204 74.7816 791.822 75.2331 788.209 74.8832C783.896 74.4655 779.526 72.919 775.777 70.4807C772.627 68.4262 771.915 67.5796 771.915 65.8976C771.915 62.5224 775.63 56.6072 781.987 49.8568C785.601 46.03 790.626 41.5372 791.179 41.6614C792.24 41.8984 800.698 50.139 803.859 54.0222ZM783.388 34.3352C780.034 31.2986 776.827 28.2507 773.632 27.1783C771.915 26.6026 771.791 26.6365 770.391 28.0927C767.094 31.5244 764.35 37.0896 763.582 41.9097C762.973 45.7704 762.894 46.854 763.108 48.7392C763.74 54.4399 765.061 58.3795 767.681 62.3869C768.754 64.035 769.047 64.3398 768.731 63.5045C768.257 62.2627 768.697 59.2713 769.804 56.2799C771.419 51.8774 775.89 43.5352 783.388 34.3352ZM818.572 41.5033C816.664 32.4726 810.95 26.7945 810.149 26.7945C809.324 26.7945 807.416 27.5283 806.084 28.3636C803.453 30.0004 801.454 31.9082 798.823 34.3239C803.611 40.3406 810.363 50.06 812.7 57.1604C813.468 59.4971 813.796 61.7999 813.536 63.0642C813.344 64.0237 813.344 64.0237 813.694 63.5835C814.383 62.7143 815.941 60.0502 816.562 58.673C817.398 56.8443 818.256 54.1351 818.662 52.0467C819.148 49.5068 819.103 44.0545 818.572 41.5033ZM778.047 22.9564C783.433 22.6742 790.434 26.851 790.953 26.9526C791.032 26.9638 792.127 26.4784 793.392 25.8576C800.607 22.3469 804.006 22.9452 805.519 23.0129C798.304 18.5765 788.277 17.3687 779.108 21.6921C776.466 22.9452 776.398 23.0355 778.047 22.9564Z" fill="#3B44F6"/>
<path d="M685.978 136L691.438 122H693.878L699.298 136H696.598L693.598 128.04C693.532 127.88 693.438 127.627 693.318 127.28C693.212 126.933 693.092 126.56 692.958 126.16C692.825 125.747 692.705 125.367 692.598 125.02C692.492 124.66 692.412 124.4 692.358 124.24L692.858 124.22C692.778 124.487 692.685 124.787 692.578 125.12C692.472 125.453 692.358 125.8 692.238 126.16C692.118 126.52 691.998 126.867 691.878 127.2C691.772 127.533 691.672 127.833 691.578 128.1L688.578 136H685.978ZM688.458 132.8L689.358 130.54H695.738L696.698 132.8H688.458ZM703.447 136L699.007 125.46H701.687L704.687 133.34L704.167 133.48L707.327 125.46H709.947L705.287 136H703.447ZM715.434 136.2C714.567 136.2 713.78 135.96 713.074 135.48C712.367 135 711.8 134.347 711.374 133.52C710.947 132.693 710.734 131.753 710.734 130.7C710.734 129.647 710.947 128.707 711.374 127.88C711.8 127.053 712.38 126.407 713.114 125.94C713.847 125.473 714.674 125.24 715.594 125.24C716.127 125.24 716.614 125.32 717.054 125.48C717.494 125.627 717.88 125.84 718.214 126.12C718.547 126.4 718.82 126.72 719.034 127.08C719.26 127.44 719.414 127.827 719.494 128.24L718.954 128.1V125.46H721.434V136H718.934V133.48L719.514 133.38C719.42 133.74 719.247 134.093 718.994 134.44C718.754 134.773 718.447 135.073 718.074 135.34C717.714 135.593 717.307 135.8 716.854 135.96C716.414 136.12 715.94 136.2 715.434 136.2ZM716.114 134.02C716.687 134.02 717.194 133.88 717.634 133.6C718.074 133.32 718.414 132.933 718.654 132.44C718.907 131.933 719.034 131.353 719.034 130.7C719.034 130.06 718.907 129.493 718.654 129C718.414 128.507 718.074 128.12 717.634 127.84C717.194 127.56 716.687 127.42 716.114 127.42C715.54 127.42 715.034 127.56 714.594 127.84C714.167 128.12 713.834 128.507 713.594 129C713.354 129.493 713.234 130.06 713.234 130.7C713.234 131.353 713.354 131.933 713.594 132.44C713.834 132.933 714.167 133.32 714.594 133.6C715.034 133.88 715.54 134.02 716.114 134.02ZM724.566 136V125.46H727.026V136H724.566ZM725.766 123.22C725.272 123.22 724.886 123.1 724.606 122.86C724.339 122.607 724.206 122.253 724.206 121.8C724.206 121.373 724.346 121.027 724.626 120.76C724.906 120.493 725.286 120.36 725.766 120.36C726.272 120.36 726.659 120.487 726.926 120.74C727.206 120.98 727.346 121.333 727.346 121.8C727.346 122.213 727.206 122.553 726.926 122.82C726.646 123.087 726.259 123.22 725.766 123.22ZM730.165 136V121.2H732.645V136H730.165ZM739.32 136.2C738.454 136.2 737.667 135.96 736.96 135.48C736.254 135 735.687 134.347 735.26 133.52C734.834 132.693 734.62 131.753 734.62 130.7C734.62 129.647 734.834 128.707 735.26 127.88C735.687 127.053 736.267 126.407 737 125.94C737.734 125.473 738.56 125.24 739.48 125.24C740.014 125.24 740.5 125.32 740.94 125.48C741.38 125.627 741.767 125.84 742.1 126.12C742.434 126.4 742.707 126.72 742.92 127.08C743.147 127.44 743.3 127.827 743.38 128.24L742.84 128.1V125.46H745.32V136H742.82V133.48L743.4 133.38C743.307 133.74 743.134 134.093 742.88 134.44C742.64 134.773 742.334 135.073 741.96 135.34C741.6 135.593 741.194 135.8 740.74 135.96C740.3 136.12 739.827 136.2 739.32 136.2ZM740 134.02C740.574 134.02 741.08 133.88 741.52 133.6C741.96 133.32 742.3 132.933 742.54 132.44C742.794 131.933 742.92 131.353 742.92 130.7C742.92 130.06 742.794 129.493 742.54 129C742.3 128.507 741.96 128.12 741.52 127.84C741.08 127.56 740.574 127.42 740 127.42C739.427 127.42 738.92 127.56 738.48 127.84C738.054 128.12 737.72 128.507 737.48 129C737.24 129.493 737.12 130.06 737.12 130.7C737.12 131.353 737.24 131.933 737.48 132.44C737.72 132.933 738.054 133.32 738.48 133.6C738.92 133.88 739.427 134.02 740 134.02ZM753.992 136.2C753.526 136.2 753.066 136.133 752.612 136C752.172 135.853 751.772 135.66 751.412 135.42C751.052 135.18 750.752 134.913 750.512 134.62C750.272 134.313 750.112 134.007 750.032 133.7L750.612 133.44L750.552 135.96H748.172V121.2H750.632V127.9L750.192 127.7C750.259 127.38 750.406 127.08 750.632 126.8C750.872 126.507 751.166 126.247 751.512 126.02C751.859 125.78 752.239 125.593 752.652 125.46C753.066 125.313 753.486 125.24 753.912 125.24C754.859 125.24 755.692 125.473 756.412 125.94C757.146 126.407 757.719 127.053 758.132 127.88C758.559 128.707 758.772 129.647 758.772 130.7C758.772 131.767 758.566 132.713 758.152 133.54C757.739 134.367 757.166 135.02 756.432 135.5C755.712 135.967 754.899 136.2 753.992 136.2ZM753.472 134.04C754.032 134.04 754.532 133.9 754.972 133.62C755.412 133.327 755.759 132.933 756.012 132.44C756.266 131.933 756.392 131.353 756.392 130.7C756.392 130.06 756.266 129.493 756.012 129C755.772 128.507 755.432 128.12 754.992 127.84C754.552 127.56 754.046 127.42 753.472 127.42C752.899 127.42 752.392 127.56 751.952 127.84C751.512 128.12 751.166 128.507 750.912 129C750.659 129.493 750.532 130.06 750.532 130.7C750.532 131.353 750.659 131.933 750.912 132.44C751.166 132.933 751.512 133.327 751.952 133.62C752.392 133.9 752.899 134.04 753.472 134.04ZM760.985 136V121.2H763.465V136H760.985ZM771.101 136.2C769.994 136.2 769.014 135.967 768.161 135.5C767.321 135.033 766.661 134.4 766.181 133.6C765.714 132.787 765.481 131.86 765.481 130.82C765.481 129.993 765.614 129.24 765.881 128.56C766.147 127.88 766.514 127.293 766.981 126.8C767.461 126.293 768.027 125.907 768.681 125.64C769.347 125.36 770.074 125.22 770.861 125.22C771.554 125.22 772.201 125.353 772.801 125.62C773.401 125.887 773.921 126.253 774.361 126.72C774.801 127.173 775.134 127.72 775.361 128.36C775.601 128.987 775.714 129.673 775.701 130.42L775.681 131.28H767.141L766.681 129.6H773.621L773.301 129.94V129.5C773.261 129.087 773.127 128.727 772.901 128.42C772.674 128.1 772.381 127.853 772.021 127.68C771.674 127.493 771.287 127.4 770.861 127.4C770.207 127.4 769.654 127.527 769.201 127.78C768.761 128.033 768.427 128.4 768.201 128.88C767.974 129.347 767.861 129.933 767.861 130.64C767.861 131.32 768.001 131.913 768.281 132.42C768.574 132.927 768.981 133.32 769.501 133.6C770.034 133.867 770.654 134 771.361 134C771.854 134 772.307 133.92 772.721 133.76C773.134 133.6 773.581 133.313 774.061 132.9L775.281 134.6C774.921 134.933 774.507 135.22 774.041 135.46C773.587 135.687 773.107 135.867 772.601 136C772.094 136.133 771.594 136.2 771.101 136.2ZM784.718 136V124.52C784.718 123.88 784.858 123.313 785.138 122.82C785.418 122.313 785.805 121.92 786.298 121.64C786.792 121.347 787.365 121.2 788.018 121.2C788.472 121.2 788.892 121.28 789.278 121.44C789.665 121.587 789.992 121.793 790.258 122.06L789.498 123.92C789.325 123.773 789.138 123.66 788.938 123.58C788.752 123.5 788.572 123.46 788.398 123.46C788.132 123.46 787.905 123.507 787.718 123.6C787.545 123.68 787.412 123.807 787.318 123.98C787.238 124.153 787.198 124.36 787.198 124.6V136H785.958C785.718 136 785.492 136 785.278 136C785.078 136 784.892 136 784.718 136ZM783.078 127.84V125.68H789.578V127.84H783.078ZM796.039 136.2C794.986 136.2 794.046 135.967 793.219 135.5C792.393 135.02 791.739 134.367 791.259 133.54C790.779 132.713 790.539 131.773 790.539 130.72C790.539 129.667 790.779 128.727 791.259 127.9C791.739 127.073 792.393 126.427 793.219 125.96C794.046 125.48 794.986 125.24 796.039 125.24C797.079 125.24 798.013 125.48 798.839 125.96C799.666 126.427 800.313 127.073 800.779 127.9C801.259 128.727 801.499 129.667 801.499 130.72C801.499 131.773 801.259 132.713 800.779 133.54C800.313 134.367 799.666 135.02 798.839 135.5C798.013 135.967 797.079 136.2 796.039 136.2ZM796.039 134.02C796.613 134.02 797.119 133.873 797.559 133.58C798.013 133.287 798.366 132.893 798.619 132.4C798.886 131.907 799.013 131.347 798.999 130.72C799.013 130.08 798.886 129.513 798.619 129.02C798.366 128.527 798.013 128.14 797.559 127.86C797.119 127.567 796.613 127.42 796.039 127.42C795.466 127.42 794.946 127.567 794.479 127.86C794.026 128.14 793.673 128.533 793.419 129.04C793.166 129.533 793.039 130.093 793.039 130.72C793.039 131.347 793.166 131.907 793.419 132.4C793.673 132.893 794.026 133.287 794.479 133.58C794.946 133.873 795.466 134.02 796.039 134.02ZM803.7 136V125.46H806.12L806.16 128.82L805.82 128.06C805.966 127.527 806.22 127.047 806.58 126.62C806.94 126.193 807.353 125.86 807.82 125.62C808.3 125.367 808.8 125.24 809.32 125.24C809.546 125.24 809.76 125.26 809.96 125.3C810.173 125.34 810.346 125.387 810.48 125.44L809.82 128.14C809.673 128.06 809.493 127.993 809.28 127.94C809.066 127.887 808.853 127.86 808.64 127.86C808.306 127.86 807.986 127.927 807.68 128.06C807.386 128.18 807.126 128.353 806.9 128.58C806.673 128.807 806.493 129.073 806.36 129.38C806.24 129.673 806.18 130.007 806.18 130.38V136H803.7ZM821.977 136.2C821.11 136.2 820.323 135.96 819.617 135.48C818.91 135 818.343 134.347 817.917 133.52C817.49 132.693 817.277 131.753 817.277 130.7C817.277 129.647 817.49 128.707 817.917 127.88C818.343 127.053 818.923 126.407 819.657 125.94C820.39 125.473 821.217 125.24 822.137 125.24C822.67 125.24 823.157 125.32 823.597 125.48C824.037 125.627 824.423 125.84 824.757 126.12C825.09 126.4 825.363 126.72 825.577 127.08C825.803 127.44 825.957 127.827 826.037 128.24L825.497 128.1V125.46H827.977V136H825.477V133.48L826.057 133.38C825.963 133.74 825.79 134.093 825.537 134.44C825.297 134.773 824.99 135.073 824.617 135.34C824.257 135.593 823.85 135.8 823.397 135.96C822.957 136.12 822.483 136.2 821.977 136.2ZM822.657 134.02C823.23 134.02 823.737 133.88 824.177 133.6C824.617 133.32 824.957 132.933 825.197 132.44C825.45 131.933 825.577 131.353 825.577 130.7C825.577 130.06 825.45 129.493 825.197 129C824.957 128.507 824.617 128.12 824.177 127.84C823.737 127.56 823.23 127.42 822.657 127.42C822.083 127.42 821.577 127.56 821.137 127.84C820.71 128.12 820.377 128.507 820.137 129C819.897 129.493 819.777 130.06 819.777 130.7C819.777 131.353 819.897 131.933 820.137 132.44C820.377 132.933 820.71 133.32 821.137 133.6C821.577 133.88 822.083 134.02 822.657 134.02ZM830.849 136V121.2H833.329V136H830.849ZM836.239 136V121.2H838.719V136H836.239ZM856.349 136L852.009 129.72L846.449 122H849.689L853.929 128.2L859.589 136H856.349ZM846.349 136L851.689 128.38L853.529 129.96L849.389 136H846.349ZM854.249 129.5L852.429 127.98L856.349 122H859.389L854.249 129.5ZM867.156 136.2C866.69 136.2 866.23 136.133 865.776 136C865.336 135.853 864.936 135.66 864.576 135.42C864.216 135.18 863.916 134.913 863.676 134.62C863.436 134.313 863.276 134.007 863.196 133.7L863.776 133.44L863.716 135.96H861.336V121.2H863.796V127.9L863.356 127.7C863.423 127.38 863.57 127.08 863.796 126.8C864.036 126.507 864.33 126.247 864.676 126.02C865.023 125.78 865.403 125.593 865.816 125.46C866.23 125.313 866.65 125.24 867.076 125.24C868.023 125.24 868.856 125.473 869.576 125.94C870.31 126.407 870.883 127.053 871.296 127.88C871.723 128.707 871.936 129.647 871.936 130.7C871.936 131.767 871.73 132.713 871.316 133.54C870.903 134.367 870.33 135.02 869.596 135.5C868.876 135.967 868.063 136.2 867.156 136.2ZM866.636 134.04C867.196 134.04 867.696 133.9 868.136 133.62C868.576 133.327 868.923 132.933 869.176 132.44C869.43 131.933 869.556 131.353 869.556 130.7C869.556 130.06 869.43 129.493 869.176 129C868.936 128.507 868.596 128.12 868.156 127.84C867.716 127.56 867.21 127.42 866.636 127.42C866.063 127.42 865.556 127.56 865.116 127.84C864.676 128.12 864.33 128.507 864.076 129C863.823 129.493 863.696 130.06 863.696 130.7C863.696 131.353 863.823 131.933 864.076 132.44C864.33 132.933 864.676 133.327 865.116 133.62C865.556 133.9 866.063 134.04 866.636 134.04ZM878.949 136.2C877.896 136.2 876.956 135.967 876.129 135.5C875.303 135.02 874.649 134.367 874.169 133.54C873.689 132.713 873.449 131.773 873.449 130.72C873.449 129.667 873.689 128.727 874.169 127.9C874.649 127.073 875.303 126.427 876.129 125.96C876.956 125.48 877.896 125.24 878.949 125.24C879.989 125.24 880.923 125.48 881.749 125.96C882.576 126.427 883.223 127.073 883.689 127.9C884.169 128.727 884.409 129.667 884.409 130.72C884.409 131.773 884.169 132.713 883.689 133.54C883.223 134.367 882.576 135.02 881.749 135.5C880.923 135.967 879.989 136.2 878.949 136.2ZM878.949 134.02C879.523 134.02 880.029 133.873 880.469 133.58C880.923 133.287 881.276 132.893 881.529 132.4C881.796 131.907 881.923 131.347 881.909 130.72C881.923 130.08 881.796 129.513 881.529 129.02C881.276 128.527 880.923 128.14 880.469 127.86C880.029 127.567 879.523 127.42 878.949 127.42C878.376 127.42 877.856 127.567 877.389 127.86C876.936 128.14 876.583 128.533 876.329 129.04C876.076 129.533 875.949 130.093 875.949 130.72C875.949 131.347 876.076 131.907 876.329 132.4C876.583 132.893 876.936 133.287 877.389 133.58C877.856 133.873 878.376 134.02 878.949 134.02ZM893.039 136L890.039 131.94L889.479 131.18L885.139 125.46H888.179L891.099 129.42L891.719 130.26L896.019 136H893.039ZM885.119 136L889.299 130.4L890.699 132.08L888.019 136H885.119ZM891.719 131.08L890.379 129.42L892.799 125.46H895.699L891.719 131.08ZM754.831 162.2C753.844 162.2 752.958 161.96 752.171 161.48C751.384 161 750.764 160.347 750.311 159.52C749.858 158.693 749.631 157.76 749.631 156.72C749.631 155.68 749.858 154.747 750.311 153.92C750.764 153.093 751.384 152.44 752.171 151.96C752.958 151.48 753.844 151.24 754.831 151.24C755.778 151.24 756.638 151.42 757.411 151.78C758.184 152.14 758.784 152.64 759.211 153.28L757.851 154.92C757.651 154.64 757.398 154.387 757.091 154.16C756.784 153.933 756.458 153.753 756.111 153.62C755.764 153.487 755.418 153.42 755.071 153.42C754.484 153.42 753.958 153.567 753.491 153.86C753.038 154.14 752.678 154.533 752.411 155.04C752.144 155.533 752.011 156.093 752.011 156.72C752.011 157.347 752.144 157.907 752.411 158.4C752.691 158.893 753.064 159.287 753.531 159.58C753.998 159.873 754.518 160.02 755.091 160.02C755.438 160.02 755.771 159.967 756.091 159.86C756.424 159.74 756.738 159.573 757.031 159.36C757.324 159.147 757.598 158.88 757.851 158.56L759.211 160.22C758.758 160.807 758.131 161.287 757.331 161.66C756.544 162.02 755.711 162.2 754.831 162.2ZM765.912 162.2C764.859 162.2 763.919 161.967 763.092 161.5C762.266 161.02 761.612 160.367 761.132 159.54C760.652 158.713 760.412 157.773 760.412 156.72C760.412 155.667 760.652 154.727 761.132 153.9C761.612 153.073 762.266 152.427 763.092 151.96C763.919 151.48 764.859 151.24 765.912 151.24C766.952 151.24 767.886 151.48 768.712 151.96C769.539 152.427 770.186 153.073 770.652 153.9C771.132 154.727 771.372 155.667 771.372 156.72C771.372 157.773 771.132 158.713 770.652 159.54C770.186 160.367 769.539 161.02 768.712 161.5C767.886 161.967 766.952 162.2 765.912 162.2ZM765.912 160.02C766.486 160.02 766.992 159.873 767.432 159.58C767.886 159.287 768.239 158.893 768.492 158.4C768.759 157.907 768.886 157.347 768.872 156.72C768.886 156.08 768.759 155.513 768.492 155.02C768.239 154.527 767.886 154.14 767.432 153.86C766.992 153.567 766.486 153.42 765.912 153.42C765.339 153.42 764.819 153.567 764.352 153.86C763.899 154.14 763.546 154.533 763.292 155.04C763.039 155.533 762.912 156.093 762.912 156.72C762.912 157.347 763.039 157.907 763.292 158.4C763.546 158.893 763.899 159.287 764.352 159.58C764.819 159.873 765.339 160.02 765.912 160.02ZM773.573 162V151.46H775.973L776.013 153.62L775.553 153.86C775.686 153.38 775.946 152.947 776.333 152.56C776.719 152.16 777.179 151.84 777.713 151.6C778.246 151.36 778.793 151.24 779.353 151.24C780.153 151.24 780.819 151.4 781.353 151.72C781.899 152.04 782.306 152.52 782.573 153.16C782.853 153.8 782.993 154.6 782.993 155.56V162H780.533V155.74C780.533 155.207 780.459 154.767 780.313 154.42C780.166 154.06 779.939 153.8 779.633 153.64C779.326 153.467 778.953 153.387 778.513 153.4C778.153 153.4 777.819 153.46 777.513 153.58C777.219 153.687 776.959 153.847 776.733 154.06C776.519 154.26 776.346 154.493 776.213 154.76C776.093 155.027 776.033 155.32 776.033 155.64V162H774.813C774.573 162 774.346 162 774.133 162C773.933 162 773.746 162 773.573 162ZM789.28 162.2C788.347 162.2 787.507 162.047 786.76 161.74C786.027 161.42 785.427 160.967 784.96 160.38L786.56 159C786.96 159.453 787.407 159.78 787.9 159.98C788.394 160.18 788.914 160.28 789.46 160.28C789.687 160.28 789.887 160.253 790.06 160.2C790.247 160.147 790.407 160.067 790.54 159.96C790.674 159.853 790.774 159.733 790.84 159.6C790.92 159.453 790.96 159.293 790.96 159.12C790.96 158.8 790.84 158.547 790.6 158.36C790.467 158.267 790.254 158.167 789.96 158.06C789.68 157.953 789.314 157.847 788.86 157.74C788.14 157.553 787.54 157.34 787.06 157.1C786.58 156.847 786.207 156.567 785.94 156.26C785.714 156.007 785.54 155.72 785.42 155.4C785.314 155.08 785.26 154.733 785.26 154.36C785.26 153.893 785.36 153.473 785.56 153.1C785.774 152.713 786.06 152.38 786.42 152.1C786.78 151.82 787.2 151.607 787.68 151.46C788.16 151.313 788.66 151.24 789.18 151.24C789.714 151.24 790.227 151.307 790.72 151.44C791.227 151.573 791.694 151.767 792.12 152.02C792.56 152.26 792.934 152.553 793.24 152.9L791.88 154.4C791.627 154.16 791.347 153.947 791.04 153.76C790.747 153.573 790.447 153.427 790.14 153.32C789.834 153.2 789.547 153.14 789.28 153.14C789.027 153.14 788.8 153.167 788.6 153.22C788.4 153.26 788.234 153.327 788.1 153.42C787.967 153.513 787.86 153.633 787.78 153.78C787.714 153.913 787.68 154.073 787.68 154.26C787.694 154.42 787.734 154.573 787.8 154.72C787.88 154.853 787.987 154.967 788.12 155.06C788.267 155.153 788.487 155.26 788.78 155.38C789.074 155.5 789.454 155.613 789.92 155.72C790.574 155.893 791.12 156.087 791.56 156.3C792 156.513 792.347 156.76 792.6 157.04C792.854 157.28 793.034 157.56 793.14 157.88C793.247 158.2 793.3 158.553 793.3 158.94C793.3 159.567 793.12 160.127 792.76 160.62C792.414 161.113 791.934 161.5 791.32 161.78C790.72 162.06 790.04 162.2 789.28 162.2ZM800.287 162.2C799.234 162.2 798.294 161.967 797.467 161.5C796.641 161.02 795.987 160.367 795.507 159.54C795.027 158.713 794.787 157.773 794.787 156.72C794.787 155.667 795.027 154.727 795.507 153.9C795.987 153.073 796.641 152.427 797.467 151.96C798.294 151.48 799.234 151.24 800.287 151.24C801.327 151.24 802.261 151.48 803.087 151.96C803.914 152.427 804.561 153.073 805.027 153.9C805.507 154.727 805.747 155.667 805.747 156.72C805.747 157.773 805.507 158.713 805.027 159.54C804.561 160.367 803.914 161.02 803.087 161.5C802.261 161.967 801.327 162.2 800.287 162.2ZM800.287 160.02C800.861 160.02 801.367 159.873 801.807 159.58C802.261 159.287 802.614 158.893 802.867 158.4C803.134 157.907 803.261 157.347 803.247 156.72C803.261 156.08 803.134 155.513 802.867 155.02C802.614 154.527 802.261 154.14 801.807 153.86C801.367 153.567 800.861 153.42 800.287 153.42C799.714 153.42 799.194 153.567 798.727 153.86C798.274 154.14 797.921 154.533 797.667 155.04C797.414 155.533 797.287 156.093 797.287 156.72C797.287 157.347 797.414 157.907 797.667 158.4C797.921 158.893 798.274 159.287 798.727 159.58C799.194 159.873 799.714 160.02 800.287 160.02ZM807.968 162V147.2H810.448V162H807.968ZM818.083 162.2C816.976 162.2 815.996 161.967 815.143 161.5C814.303 161.033 813.643 160.4 813.163 159.6C812.696 158.787 812.463 157.86 812.463 156.82C812.463 155.993 812.596 155.24 812.863 154.56C813.13 153.88 813.496 153.293 813.963 152.8C814.443 152.293 815.01 151.907 815.663 151.64C816.33 151.36 817.056 151.22 817.843 151.22C818.536 151.22 819.183 151.353 819.783 151.62C820.383 151.887 820.903 152.253 821.343 152.72C821.783 153.173 822.116 153.72 822.343 154.36C822.583 154.987 822.696 155.673 822.683 156.42L822.663 157.28H814.123L813.663 155.6H820.603L820.283 155.94V155.5C820.243 155.087 820.11 154.727 819.883 154.42C819.656 154.1 819.363 153.853 819.003 153.68C818.656 153.493 818.27 153.4 817.843 153.4C817.19 153.4 816.636 153.527 816.183 153.78C815.743 154.033 815.41 154.4 815.183 154.88C814.956 155.347 814.843 155.933 814.843 156.64C814.843 157.32 814.983 157.913 815.263 158.42C815.556 158.927 815.963 159.32 816.483 159.6C817.016 159.867 817.636 160 818.343 160C818.836 160 819.29 159.92 819.703 159.76C820.116 159.6 820.563 159.313 821.043 158.9L822.263 160.6C821.903 160.933 821.49 161.22 821.023 161.46C820.57 161.687 820.09 161.867 819.583 162C819.076 162.133 818.576 162.2 818.083 162.2ZM828.382 162.2C827.449 162.2 826.609 162.047 825.862 161.74C825.129 161.42 824.529 160.967 824.062 160.38L825.662 159C826.062 159.453 826.509 159.78 827.002 159.98C827.495 160.18 828.015 160.28 828.562 160.28C828.789 160.28 828.989 160.253 829.162 160.2C829.349 160.147 829.509 160.067 829.642 159.96C829.775 159.853 829.875 159.733 829.942 159.6C830.022 159.453 830.062 159.293 830.062 159.12C830.062 158.8 829.942 158.547 829.702 158.36C829.569 158.267 829.355 158.167 829.062 158.06C828.782 157.953 828.415 157.847 827.962 157.74C827.242 157.553 826.642 157.34 826.162 157.1C825.682 156.847 825.309 156.567 825.042 156.26C824.815 156.007 824.642 155.72 824.522 155.4C824.415 155.08 824.362 154.733 824.362 154.36C824.362 153.893 824.462 153.473 824.662 153.1C824.875 152.713 825.162 152.38 825.522 152.1C825.882 151.82 826.302 151.607 826.782 151.46C827.262 151.313 827.762 151.24 828.282 151.24C828.815 151.24 829.329 151.307 829.822 151.44C830.329 151.573 830.795 151.767 831.222 152.02C831.662 152.26 832.035 152.553 832.342 152.9L830.982 154.4C830.729 154.16 830.449 153.947 830.142 153.76C829.849 153.573 829.549 153.427 829.242 153.32C828.935 153.2 828.649 153.14 828.382 153.14C828.129 153.14 827.902 153.167 827.702 153.22C827.502 153.26 827.335 153.327 827.202 153.42C827.069 153.513 826.962 153.633 826.882 153.78C826.815 153.913 826.782 154.073 826.782 154.26C826.795 154.42 826.835 154.573 826.902 154.72C826.982 154.853 827.089 154.967 827.222 155.06C827.369 155.153 827.589 155.26 827.882 155.38C828.175 155.5 828.555 155.613 829.022 155.72C829.675 155.893 830.222 156.087 830.662 156.3C831.102 156.513 831.449 156.76 831.702 157.04C831.955 157.28 832.135 157.56 832.242 157.88C832.349 158.2 832.402 158.553 832.402 158.94C832.402 159.567 832.222 160.127 831.862 160.62C831.515 161.113 831.035 161.5 830.422 161.78C829.822 162.06 829.142 162.2 828.382 162.2Z" fill="#181818"/>
</svg>
